<mxfile host="app.diagrams.net" modified="2022-11-10T23:39:57.661Z" agent="5.0 (Macintosh; Intel Mac OS X 10_15_7) AppleWebKit/537.36 (KHTML, like Gecko) Chrome/107.0.0.0 Safari/537.36" etag="sqykinyR1_2AoIQTmD9z" version="20.5.1" type="github">
  <diagram id="jk84KoCiqGRbvonOO5nR" name="Page-1">
    <mxGraphModel dx="903" dy="710" grid="0" gridSize="10" guides="1" tooltips="1" connect="1" arrows="1" fold="1" page="1" pageScale="1" pageWidth="500" pageHeight="190" background="#EFF1F3" math="0" shadow="0">
      <root>
        <mxCell id="0" />
        <mxCell id="1" parent="0" />
        <mxCell id="XSbDL2rr6Gyu1OlXZJMn-2" value="&lt;font style=&quot;font-size: 33px;&quot;&gt;&lt;span style=&quot;&quot;&gt;&lt;font style=&quot;font-size: 33px;&quot; color=&quot;#4a919b&quot;&gt;fe80:0&lt;/font&gt;&lt;/span&gt;&lt;span style=&quot;&quot;&gt;:&lt;/span&gt;&lt;font style=&quot;font-size: 33px;&quot; color=&quot;#c89932&quot;&gt;0:0&lt;/font&gt;&lt;span style=&quot;&quot;&gt;:&lt;/span&gt;&lt;span style=&quot;&quot;&gt;&lt;font style=&quot;font-size: 33px;&quot; color=&quot;#f19c99&quot;&gt;1009:cdbf&lt;/font&gt;:&lt;font style=&quot;font-size: 33px;&quot; color=&quot;#5a6eab&quot;&gt;ecd7:2a10&lt;/font&gt;&lt;/span&gt;&lt;br&gt;&lt;/font&gt;" style="text;html=1;strokeColor=none;fillColor=none;align=center;verticalAlign=middle;whiteSpace=wrap;rounded=0;" parent="1" vertex="1">
          <mxGeometry x="19.999999999999996" y="54" width="460" height="50" as="geometry" />
        </mxCell>
        <mxCell id="cjVENmCrDsrbWY_3om6L-1" value="&lt;font&gt;&lt;font color=&quot;#808080&quot; style=&quot;font-size: 22px;&quot;&gt;IPV6&amp;nbsp; 地址&lt;/font&gt;&lt;br&gt;&lt;/font&gt;" style="text;html=1;strokeColor=none;fillColor=none;align=center;verticalAlign=middle;whiteSpace=wrap;rounded=0;" parent="1" vertex="1">
          <mxGeometry x="150.62" y="124" width="198.75" height="20" as="geometry" />
        </mxCell>
      </root>
    </mxGraphModel>
  </diagram>
</mxfile>
